<svg width="24" height="24" viewBox="0 0 24 24" fill="none" xmlns="http://www.w3.org/2000/svg">
<path d="M2.43467 11.7891C2.4624 10.6079 2.71198 9.46175 3.18063 8.38321C3.66038 7.27495 4.34812 6.28291 5.22442 5.42603C6.10073 4.56915 7.12123 3.89879 8.25821 3.43115C9.43401 2.9473 10.6819 2.70132 11.9714 2.70132C13.2609 2.70132 14.5088 2.9473 15.6818 3.43115C16.8156 3.89783 17.8451 4.57542 18.7129 5.42603C18.9874 5.69364 19.2453 5.97747 19.4838 6.27481L17.8144 7.54526C17.7813 7.57016 17.7562 7.60365 17.7418 7.64187C17.7274 7.68009 17.7244 7.72149 17.7331 7.7613C17.7418 7.80112 17.7619 7.83773 17.7909 7.86694C17.82 7.89614 17.857 7.91675 17.8976 7.92639L22.7699 9.08872C22.9086 9.12116 23.0445 9.01844 23.0445 8.88058L23.0667 3.99069C23.0667 3.80959 22.8531 3.70687 22.7089 3.8204L21.1449 5.01246C19.0124 2.35262 15.6957 0.646973 11.9686 0.646973C5.61543 0.646973 0.44634 5.60984 0.327096 11.7783C0.326356 11.8071 0.331547 11.8358 0.342364 11.8627C0.353181 11.8896 0.369405 11.9141 0.39008 11.9347C0.410755 11.9554 0.435462 11.9718 0.462746 11.983C0.49003 11.9942 0.519339 12 0.548945 11.9999H2.21282C2.33483 11.9999 2.43189 11.9053 2.43467 11.7891ZM23.3994 11.9999H21.7356C21.6135 11.9999 21.5165 12.0946 21.5137 12.2108C21.486 13.392 21.2364 14.5381 20.7677 15.6167C20.288 16.7249 19.6003 17.7197 18.724 18.5739C17.8395 19.4396 16.7879 20.126 15.6299 20.5937C14.4719 21.0613 13.2304 21.3009 11.977 21.2986C10.7239 21.3009 9.48286 21.0613 8.32532 20.5936C7.16778 20.126 6.11671 19.4395 5.23274 18.5739C4.9582 18.3063 4.7003 18.0224 4.46181 17.7251L6.13123 16.4546C6.16426 16.4297 6.18941 16.3962 6.20378 16.358C6.21816 16.3198 6.22117 16.2784 6.21248 16.2386C6.20379 16.1988 6.18375 16.1622 6.15466 16.133C6.12557 16.1038 6.08861 16.0831 6.04804 16.0735L1.17567 14.9112C1.03701 14.8787 0.901131 14.9815 0.901131 15.1193L0.881719 20.0119C0.881719 20.193 1.09525 20.2957 1.23945 20.1822L2.80349 18.9901C4.93602 21.6473 8.25267 23.3529 11.9797 23.3529C18.3357 23.3529 23.502 18.3873 23.6213 12.2216C23.622 12.1928 23.6168 12.164 23.606 12.1372C23.5952 12.1103 23.579 12.0858 23.5583 12.0652C23.5376 12.0445 23.5129 12.0281 23.4856 12.0169C23.4583 12.0057 23.429 11.9999 23.3994 11.9999Z" fill="white"/>
</svg>
